# xmcd
#
# Track frame offsets: 
#        150
#        7476
#        18410
#        38014
#        50103
#        74325
#        88111
#        99638
#        116304
#        132638
#        149320
#        163846
#
# Disc length: 2443 seconds
#
# Revision: 0
# Processed by: cddbd v1.5.2PL0 Copyright (c) Steve Scherf et al.
# Submitted via: ExactAudioCopy v1.3
#
DISCID=af09890c
DTITLE=Jimmy Walker - Small Town Baby
DYEAR=1983
DGENRE=Blues
TTITLE0=Getting Out of Town
TTITLE1=I Had Lots of Troubles
TTITLE2=Easy Rider
TTITLE3=Mr. Freddie
TTITLE4=Come on, Get Your Morning Exercise
TTITLE5=Sweet Home Chicago
TTITLE6=My Baby Left Me This Morning
TTITLE7=Small Town Baby
TTITLE8=South Side Impressions
TTITLE9=King Bee
TTITLE10=Stompin' With Jimmy
TTITLE11=Kansas City Baby
EXTD=
EXTT0=
EXTT1=
EXTT2=
EXTT3=
EXTT4=
EXTT5=
EXTT6=
EXTT7=
EXTT8=
EXTT9=
EXTT10=
EXTT11=
PLAYORDER=
